<svg width="100%" height="100%" viewBox="0 0 500 500" xmlns="http://www.w3.org/2000/svg" xmlns:svg="http://www.w3.org/2000/svg">
    <defs>
        <linearGradient id="sun_outer" x1="0%" y1="0%" x2="0%" y2="100%">
            <stop offset="0" stop-color="#f6c72f"/>
            <stop offset="1" stop-color="#efb552"/>
        </linearGradient>
        <linearGradient id="sun_inner" x1="0%" y1="0%" x2="0%" y2="100%">
            <stop offset="0" stop-color="#ffe9b0"/>
            <stop offset="1" stop-color="#fbe7aa"/>
        </linearGradient>
    </defs>
    <!--<g>
        <path d="M 12,0 15.44,3.69 20.49,3.51 20.31,8.56 24,12 20.31,15.44 20.49,20.49 15.44,20.31 12,24 8.56,20.31 3.51,20.49 3.51,15.44 0,12 3.51,8.56 l 0,-5.05 5.05,0 z"
              style="fill:url(#sun_outer)"/>
        <circle cx="12" cy="12" r="8"
                style="fill:url(#sun_inner)"/>
    </g>-->
    <g>
        <path d="M50,50 a25,25 0 0,0 0,50 h75" style="fill: none; stroke: #9bccf6; stroke-width: 5px; stroke-linecap: initial"/>
        <path d="M65,75 a10,10 0 0,0 -10,-10 a10,10 0 0,0 0,20 h20 m5,0 h35" style="fill: none; stroke: #7cbcf2; stroke-width: 5px; stroke-linecap: initial"/>
        <path d="M15,105 a10,10 0 0,0 10,10 h25 m5,0 h55" style="fill: none; stroke: #9bccf6; stroke-width: 5px; stroke-linecap: initial"/>
        <path d="M5,155 v-5 a20,20 0 0,1 20,-20 h15 m5,0 h65 m5,0 h25" style="fill: none; stroke: #7cbcf2; stroke-width: 5px; stroke-linecap: initial"/>
        <path d="M35,165 h-5 a10,10 0 0,1 0,-20 h50 m5,0 h35" style="fill: none; stroke: #9bccf6; stroke-width: 5px; stroke-linecap: initial"/>
    </g>
</svg>